<?xml version="1.0" encoding="UTF-8"?>
<svg width="22px" height="16px" viewBox="0 0 22 16" version="1.1" xmlns="http://www.w3.org/2000/svg" xmlns:xlink="http://www.w3.org/1999/xlink">
    <!-- Generator: Sketch 53.2 (72643) - https://sketchapp.com -->
    <title>Untitled</title>
    <desc>Created with Sketch.</desc>
    <g id="Page-1" stroke="none" stroke-width="1" fill="none" fill-rule="evenodd">
        <g id="Vector" fill="#1D1D1D">
            <path d="M11,2.5 C12.8387,2.49389 14.6419,3.00678 16.2021,3.97973 C17.7624,4.95267 19.0164,6.34616 19.82,8 C19.0173,9.65458 17.7635,11.0487 16.2031,12.0218 C14.6426,12.9949 12.839,13.5073 11,13.5 C9.16101,13.5073 7.35738,12.9949 5.79692,12.0218 C4.23646,11.0487 2.98266,9.65458 2.18,8 C2.98362,6.34616 4.23763,4.95267 5.79788,3.97973 C7.35813,3.00678 9.16126,2.49389 11,2.5 Z M11,0.5 C6,0.5 1.73,3.61 0,8 C1.73,12.39 6,15.5 11,15.5 C16,15.5 20.27,12.39 22,8 C20.27,3.61 16,0.5 11,0.5 Z M11,5.5 C11.663,5.5 12.2989,5.76339 12.7678,6.23223 C13.2366,6.70107 13.5,7.33696 13.5,8 C13.5,8.66304 13.2366,9.29893 12.7678,9.76777 C12.2989,10.2366 11.663,10.5 11,10.5 C10.337,10.5 9.70107,10.2366 9.23223,9.76777 C8.76339,9.29893 8.5,8.66304 8.5,8 C8.5,7.33696 8.76339,6.70107 9.23223,6.23223 C9.70107,5.76339 10.337,5.5 11,5.5 Z M11,3.5 C8.52,3.5 6.5,5.52 6.5,8 C6.5,10.48 8.52,12.5 11,12.5 C13.48,12.5 15.5,10.48 15.5,8 C15.5,5.52 13.48,3.5 11,3.5 Z" id="Shape"></path>
        </g>
        <text id="/" transform="translate(18.150042, 8.564624) rotate(28.000000) translate(-18.150042, -8.564624) " font-family="Roboto-Bold, Roboto" font-size="25" font-weight="bold" fill="#000000">
            <tspan x="7.15004245" y="19.5646243">/</tspan>
        </text>
    </g>
</svg>